# xmcd
#
# Track frame offsets:
#   150
#   18974
#   34861
#   47897
#   64815
#   78857
#   98673
#   111452
#   123868
#   139192
#   154530
#   166703
#   183401
#   194065
#   210578
#   231950
#   250764
#   266782
#   283861
#   297302
#   317432
#   330643
#   342640
#
# Disc length: 4745 seconds
#
# Revision: 0
# Processed by: cddbd v1.5.2PL0 Copyright (c) Steve Scherf et al.
# Submitted via: uFREEDB ActiveX Control 1.5
#
DISCID=54128717
DTITLE=Daniel - Meu Reino Encantado III
DYEAR=2005
DGENRE=Sertanejo
TTITLE0=Desatino
TTITLE1=Jeitão de Caboclo
TTITLE2=Proposta
TTITLE3=Pescador e Catireiro
TTITLE4=Mercedita
TTITLE5=Sertanejo de Coração
TTITLE6=Mala Amarela
TTITLE7=Gente de Minha Terra
TTITLE8=A Volta do Boiadeiro
TTITLE9=Poeira
TTITLE10=Na Barba do Leão
TTITLE11=O Ultimo dos Carreiros
TTITLE12=Bica D'Água
TTITLE13=A Vida de Pescador
TTITLE14=Dia de Visita
TTITLE15=Desatino
TTITLE16=Meu Reino Encantado
TTITLE17=Mundo Velho
TTITLE18=Paixão Dupla
TTITLE19=Pagode em Brasilia - Pagode na Praça - Tudo Certo
TTITLE20=Versos Aos Pés Do Homem
TTITLE21=Moradia
TTITLE22=Encantos da Natureza
EXTD=
EXTT0=
EXTT1=
EXTT2=
EXTT3=
EXTT4=
EXTT5=
EXTT6=
EXTT7=
EXTT8=
EXTT9=
EXTT10=
EXTT11=
EXTT12=
EXTT13=
EXTT14=
EXTT15=
EXTT16=
EXTT17=
EXTT18=
EXTT19=
EXTT20=
EXTT21=
EXTT22=
PLAYORDER=
